PathFileType	4	(X/Y/Z)	4_coords_data.trc
DataRate	CameraRate	NumFrames	NumMarkers	Units	OrigDataRate	OrigDataStartFrame	OrigNumFrames
30.0	30.0	5	21	m	30.0	34	44
Frame#	Time	THUMB_TIP	THUMB_IP	THUMB_MCP	THUMB_CMC	INDEX_TIP	INDEX_DIP	INDEX_PIP	INDEX_MCP	MIDDLE_TIP	MIDDLE_DIP	MIDDLE_PIP	MIDDLE_MCP	RING_TIP	RING_DIP	RING_PIP	RING_MCP	PINKY_TIP	PINKY_DIP	PINKY_PIP	PINKY_MCP	WRIST
X1	Y1	Z1	X2	Y2	Z2	X3	Y3	Z3	X4	Y4	Z4	X5	Y5	Z5	X6	Y6	Z6	X7	Y7	Z7	X8	Y8	Z8	X9	Y9	Z9	X10	Y10	Z10	X11	Y11	Z11	X12	Y12	Z12	X13	Y13	Z13	X14	Y14	Z14	X15	Y15	Z15	X16	Y16	Z16	X17	Y17	Z17	X18	Y18	Z18	X19	Y19	Z19	X20	Y20	Z20	X21	Y21	Z21
32	1.0999999999999952	0.5114402812527211	-0.03804613405560753	-0.16182759091146465	0.5018809250740102	-0.03645405267943258	-0.14099290861630642	0.4795180789558402	-0.038334124895418986	-0.11942468101277509	0.47635115440525877	-0.031499906336398986	-0.07545703329791015	0.531417518784404	-0.03935422143906531	-0.11445896654169418	0.5375143274450225	-0.026350910808655592	-0.12549268018692183	0.532665022998926	-0.004648395310444919	-0.13721850213845255	0.49454893593167815	0.008553441007665308	-0.12356158013853585	0.529842076868402	-0.035510617932283495	-0.10136624936441119	0.5423628013647401	-0.024553715725200487	-0.10852011210500212	0.544723134613788	0.0023660343330226263	-0.1194364042299062	0.5063798652840196	0.02030902112442623	-0.10515386793174258	0.5341424565663236	-0.024600717716765308	-0.08788249811708282	0.548074264799239	-0.014030679980356231	-0.09226188410283048	0.5530038970385669	0.009675950226757601	-0.09808205499449191	0.5173998369645612	0.024296266110542364	-0.08569988621414681	0.5390536768502634	-0.018700284825154512	-0.07642678359778171	0.5526678030993506	-0.008360630921878331	-0.07556242045975403	0.5544291450970654	0.012365872613894768	-0.07271255299815621	0.5206146790587648	0.02083618015936395	-0.06345408511033657	0.4622830810018609	-0.023011742144276925	-0.051989820119430985
33	1.1333333333333284	0.5146945338818008	-0.04077909836708238	-0.1598335080552007	0.5042994688399086	-0.0385613637361335	-0.1394613634483724	0.48103012725565775	-0.039693063654031246	-0.11881973082080904	0.4766106420454961	-0.032039846776359515	-0.07509575087958598	0.5416982177172031	-0.04004490721866072	-0.12023615173689162	0.5437946302554988	-0.025189399307644966	-0.13038104893573121	0.5347479931094375	-0.0035683405250466205	-0.1394748933629758	0.4965593412384979	0.006463786451170739	-0.12351809573271055	0.5398209601517001	-0.037334105088462244	-0.1058027520752457	0.5499114986571698	-0.024023837694034822	-0.1128040244280738	0.5473289215273978	0.003657103318534416	-0.12155075810570681	0.5082941076411693	0.01808663326884541	-0.1052959160184827	0.5446547058794075	-0.025718208000585774	-0.09147500274283699	0.5561017655528051	-0.012474400520856799	-0.09578387594514332	0.5558509767266243	0.01203728825899586	-0.10017639198089168	0.5191858540886487	0.021765625750280404	-0.08618535679410594	0.5481650393742843	-0.01863031300631257	-0.07891980175813385	0.5594972940615968	-0.005951120397000076	-0.07696581135952824	0.5571772450902708	0.014555855103386639	-0.07310662134124896	0.5224084521702896	0.01812709723957684	-0.06420377238756148	0.4622830810018608	-0.023011742144276925	-0.051989820119430985
34	1.1666666666666616	0.5176326251930342	-0.04344669789319222	-0.15785784606211412	0.5066781771252007	-0.040590635886200044	-0.1378617720139076	0.48262116448413284	-0.04101508528201936	-0.11811588673373102	0.4769411107589264	-0.032512616172651	-0.0746954421399339	0.5516504916388558	-0.03871822202706654	-0.1265921525310042	0.5496277243433484	-0.02291198144402129	-0.13519861353998586	0.5367433353165306	-0.002214699455120428	-0.14133252507158928	0.4987564190655215	0.004398514034842926	-0.12325226801935185	0.550669815007526	-0.03760692532873866	-0.11052241430489146	0.5574992356855593	-0.02212245659102796	-0.11697146393358165	0.5497982345873802	0.005306947393261652	-0.12311409603655554	0.5102680445374246	0.015905461184000158	-0.10519250288633808	0.555494643512865	-0.02514590359659874	-0.09493593060493827	0.5636422205806089	-0.009543117448790661	-0.09883080574426484	0.5581416357710709	0.014592994143148963	-0.10154588640135803	0.5209591186372693	0.019266705380410754	-0.08636900671990683	0.5570007434975853	-0.01743717714642834	-0.08048887094739532	0.5654007671408972	-0.0028363676964756612	-0.07744650900344935	0.5591843638748839	0.016673868643196643	-0.07280764843166698	0.5240736269082809	0.015437732089154665	-0.06464728280984722	0.4622830810018609	-0.023011742144276925	-0.05198982011943093
36	1.2000000000000008	0.5206253256677971	-0.04639331642614386	-0.1556449057603645	0.509078594245589	-0.042819598882997245	-0.13610260455540912	0.4842896013394493	-0.04242985584503811	-0.11728309523492664	0.47734808405234175	-0.03289245451603473	-0.0742628289219166	0.5609297671554947	-0.035292817595845016	-0.13349460296239135	0.5548484824287424	-0.01943222477002471	-0.13977628834815414	0.5386347251085726	-0.0004320859874977767	-0.14262560981253092	0.5010666116628725	0.0024033111731133205	-0.12277029644122911	0.5622481443465358	-0.035586679087333484	-0.11588584161048271	0.5647554616227409	-0.01840363823631641	-0.12102942666263505	0.552107604499738	0.007683761733435879	-0.12401083958510534	0.5122138385312061	0.013851065917550587	-0.10486404567728308	0.5666588805891645	-0.022222305067866266	-0.09856815844542172	0.5703980208002652	-0.004812792408090738	-0.10138377550582733	0.5598260228003558	0.017723923197458746	-0.10209741897738467	0.5226340622900578	0.016933892398632078	-0.08625902389652651	0.565476047264516	-0.014626716459775313	-0.08108204627009807	0.5702309532612115	0.0012714717067567882	-0.07688222699016117	0.5603957818447293	0.01908110915911787	-0.0716958760548822	0.5255328003820797	0.01293677006845284	-0.06478913502354999	0.462283081001861	-0.023011742144276925	-0.05198982011943104
37	1.2333333333333343	0.5233918723401121	-0.049198801466382	-0.15338552183400633	0.5113101472312607	-0.044934703302036416	-0.1343106853933188	0.485889277516137	-0.04379114303472731	-0.11638607513697741	0.4777863934209926	-0.03320600641124738	-0.07381627184869666	0.568278078295716	-0.030339445215393557	-0.13985439325497828	0.558898260552984	-0.01533209179610906	-0.1437012572325349	0.5401422287615766	0.0014057694286900846	-0.14344609834266098	0.503261021949285	0.0005592571834217575	-0.12216944223584769	0.5725673790752057	-0.03125797103415606	-0.12084521669608372	0.5707706355076554	-0.013587582898391681	-0.1243848629614483	0.5539327690193687	0.010200964860073714	-0.12435661998284109	0.5139946452109696	0.011997752949369223	-0.1044100478405619	0.5759984778360069	-0.017400441963576263	-0.101476135117061	0.575385062954028	0.0005471461226634888	-0.1030597398875866	0.5607591145462772	0.020674860917188953	-0.10199357417623511	0.5240880074569934	0.014902849511412075	-0.08597375447756617	0.5723520314358483	-0.01092103297246616	-0.08067680188832166	0.5735201486765213	0.005400366718432137	-0.07565212137688754	0.5608038649254504	0.02120312920922862	-0.07023171140883849	0.5267073724939897	0.010809745311291419	-0.06472805571271756	0.462283081001861	-0.023011742144276925	-0.051989820119430985
